# xmcd
#
# Track frame offsets:
#	150
#	13303
#	28473
#	45041
#	56064
#	64775
#	79031
#	89302
#	105508
#	115668
#	131456
#	145767
#	154004
#	166616
#	183101
#	195183
#	206331
#	217717
#	229409
#	240971
#
# Disc length: 3379 seconds
#
# Revision: 1
# Processed by: cddbd v1.5.2PL0 Copyright (c) Steve Scherf et al.
# Submitted via: audiograbber 1.83.01
#
DISCID=f20d3114
DTITLE=Irrsdorfer Tanzlmusi - An recht schön Dånk
DYEAR=1900
DGENRE=
TTITLE0=Erstbest`n Freund Polka
TTITLE1=Im schönen Flachgau
TTITLE2=Musikantenfrauen Walzer
TTITLE3=Heimatabendpolka
TTITLE4=Haunshofner Weise
TTITLE5=Lausbuam Boarischer
TTITLE6=Bürgermeister Polka
TTITLE7=38 Grad Landler
TTITLE8=A Poikal für mei Frau
TTITLE9=Hoamat wia bis du schön
TTITLE10=Im Wirtshaus
TTITLE11=Fuhrmannslied
TTITLE12=Da Lausbuam Streich
TTITLE13=Geistesblitz Boarischer
TTITLE14=Innviertler Marsch
TTITLE15=Obstla Polka
TTITLE16=A guada Liter Bier
TTITLE17=Latschenalm Polka
TTITLE18=Pflaum Boarischer
TTITLE19=An recht an schön Dånk
EXTD=
EXTT0=
EXTT1=
EXTT2=
EXTT3=
EXTT4=
EXTT5=
EXTT6=
EXTT7=
EXTT8=
EXTT9=
EXTT10=
EXTT11=
EXTT12=
EXTT13=
EXTT14=
EXTT15=
EXTT16=
EXTT17=
EXTT18=
EXTT19=
PLAYORDER=
